<?xml version="1.0" encoding="utf-8"?>
<!-- Generator: Adobe Illustrator 28.1.0, SVG Export Plug-In . SVG Version: 6.00 Build 0)  -->
<svg version="1.1" id="Layer_1" xmlns="http://www.w3.org/2000/svg" xmlns:xlink="http://www.w3.org/1999/xlink" x="0px" y="0px"
	 viewBox="0 0 600 600" style="enable-background:new 0 0 600 600;" xml:space="preserve">
<style type="text/css">
	.st0{fill:url(#SVGID_1_);}
	.st1{fill:#603913;}
</style>
<g>
	<linearGradient id="SVGID_1_" gradientUnits="userSpaceOnUse" x1="300" y1="32.8564" x2="300" y2="439.7185">
		<stop  offset="0" style="stop-color:#C49A6C"/>
		<stop  offset="0.5849" style="stop-color:#845A30"/>
		<stop  offset="1" style="stop-color:#603913"/>
	</linearGradient>
	<path class="st0" d="M99.1,190.6c-6,5.8-5.5,12.5-6.5,18.4c-5.8,35.9-6.5,71.6,5.5,106.6c14.5,42.3,43.7,70.8,84,88.5
		c48.3,21.2,99.2,24.6,151,20.4c35-2.9,68.6-11.1,99.7-27.8c48.4-25.9,72.7-67.6,78.1-121.4c2.7-27.2,0-53.9-5.8-80.4
		c-0.5-2.3-0.3-5.8-2.8-6c-3.8-0.4-2.8,3.8-3.6,6c-2,5.6-3.3,11.4-5.8,16.8c-3.3,7.4-6.6,13.9-2.3,22.6c2.8,5.6-0.3,12.3-6.3,15.2
		c-5,2.4-5.8,5.8-6.3,10.5c-1.6,15.8-3.4,31.6-5.5,47.3c-0.5,3.8,0.5,5.9,3.3,8.3c6.1,5.4,7.5,12.4,3.2,19.4
		c-4.3,7.2-11.3,8.8-18.8,5.8c-3.9-1.6-6.5-1.3-9.8,1.2c-4.6,3.4-9.6,6.1-14.4,9.2c-5.7,3.6-11.3,6.5-11.9,15.1
		c-0.6,7.7-7.2,11.3-15.1,10.9c-7.2-0.4-13-4.5-13.1-11.2c-0.1-8.1-3.9-12.4-9.6-16.5c-2.9-2.1-7.7-4.5-3.7-9.2
		c3.7-4.4,6.9-0.6,9.9,1.6c1.4,1.1,2.7,2.4,4.1,3.5c2.1,1.6,4,3.9,7.1,2.6c3.5-1.4,2.5-4.4,2.5-6.9c0.1-15.8,0-31.6-1.9-48
		c-5.6,8.2-11.2,16.5-16.8,24.7c-12.2,17.8-23.7,36-41.4,49.3c-30.8,23.4-65.6,14.2-89.7-8.6c-3.1-2.9-4.9-6.4-1.4-10.2
		c3.3-3.6,6.9-2.6,10.4,0.2c1.8,1.5,3.6,3,6.5,5.4c0-12.4,0-23.7,0-35.8c-5.1,2.1-8.2,6.4-11.9,10c-10.4,10.3-19.9,21.6-31.5,30.8
		c-11.9,9.4-25.3,14.8-40.6,14.6c-20.2-0.2-38.8-14-45.7-33.6c-6.1-17.3-0.2-38.7,13.8-50.8c15.1-13,36.3-14.9,54.6-5
		c6,3.2,10.4,8,14.1,13.6c2.5,3.8,3.9,7.7-0.7,11c-4.4,3.2-7.1,0.2-9.7-3c-9.1-10.9-20.4-16.9-34.8-13.8
		c-14.3,3.1-22.7,12.6-25.3,26.8c-2.6,14.4,2.8,26,14.5,34.4c14.8,10.7,29.8,8.6,44.6-0.3c11.5-6.9,20.2-16.8,29.4-26.2
		c7.9-8.1,14.9-16.9,24.2-23.6c33.1-23.7,61.9-14.6,82.3-0.4c3.2,2.2,6.2,4.7,9.2,7.2c3.3,2.7,4,6.2,1.2,9.4
		c-2.5,2.9-5.6,5.8-9.9,2.2c-5-4.1-6.7-2.2-6.6,3.5c0.1,6,0,12,0.1,18c0,1.7-0.8,3.9,1.1,4.8c2.5,1.2,3.5-1.5,5-2.8
		c9.3-7.8,15.8-17.9,22.6-27.7c5.8-8.4,11.3-16.9,17.2-25.3c4-5.8,7.7-10.8,6.6-19.2c-1.4-10.3,9.9-17.2,20-12.8
		c5.5,2.4,9.4,1.5,13.9-1.4c5.8-3.7,11.8-7.1,17.9-10.3c7-3.7,13.7-7,14.8-16.6c0.6-5.8,5.7-9.2,11.6-9.7c3.9-0.3,6-2,7.3-5.4
		c7.3-17.8,14.4-35.6,12.3-55.5c-0.4-4.3,0.4-8.2,4.8-9.5c5.2-1.6,7.7,2.1,9.4,6.2c7.9,18.9,12.2,38.8,14.9,59
		c4.2,32.1,3.4,63.9-5.3,95.3c-10.8,39.3-34,69.2-68.3,90.5c-36.7,22.8-77.6,31.9-120,35.5c-41.2,3.5-82.2,0.9-122.1-10.8
		c-52.3-15.3-94.7-43.2-117-95.4c-14.9-34.9-17.3-71.4-13-108.6c5.2-45.4,18.6-87.7,49.3-122.9c25.5-29.3,58.8-45.8,95.4-56.2
		c44.2-12.6,89-15.4,134.2-5.8c31.8,6.7,61.7,17.9,87.1,39.1c39.1,32.7,41,85.1,5.3,120.5c-25.6,25.4-57.3,37.4-91.3,43.7
		c-36.7,6.8-73.8,7.3-110.2-3.1c-18.3-5.2-35.3-12.9-50.2-25c-38.2-30.9-39-81-1.2-112.5c24.3-20.3,53.4-28.6,84.2-31.8
		c13.7-1.4,27.7-1.8,41.3-0.1c25.5,3.3,50.2,9.3,69.6,28.1c20.8,20.2,21.1,49.4-0.2,69.2c-24.1,22.4-54.1,28.2-85.9,27.6
		c-18-0.3-35.1-4.4-50.2-14.6c-25.7-17.4-25.5-48.9,1-65c24.2-14.7,49.9-18.2,75.9-3.8c9.3,5.1,15.1,13.2,13.7,24.3
		c-1.5,11.2-9.1,17.8-19.4,21.5c-9.6,3.4-19.3,4-29.1,0.9c-5.9-1.9-10.6-5.8-13.5-11.2c-1.6-3-1.8-6.5,1.4-8.9c3.2-2.4,6.9-2,8.8,1
		c8,12.3,18.4,9.4,29.1,5.2c4.7-1.8,8.5-4.8,9-10.2c0.6-5.8-2.8-9.7-7.8-12c-19.7-8.9-39.1-7.1-57.9,2.6c-4.8,2.5-9.9,4.6-13,10.1
		c-5.4,9.7-5,19.8,2.4,28.2c8.4,9.5,19.6,13.9,31.4,16.2c26.3,5.2,51.9,2.3,76.4-8.8c8.8-4,16.5-9.8,22.4-17.6
		c10.6-13.9,10.1-29.6-1.7-42.6c-14.3-15.7-33.3-22.3-53.3-25.4c-37.5-5.7-74.2-2.2-108.5,15.6c-18.6,9.7-33.1,23.3-38.9,44.4
		c-6.2,22.7,4.5,46.8,27.9,63.1c17.8,12.5,37.9,19.2,59.1,22.5c46.4,7.2,91.5,2.6,134.4-17.3c18.2-8.5,34.5-19.8,45.6-37.7
		c16.3-26.2,13.9-55.6-7.1-78.3c-18.1-19.6-40.9-31.4-65.9-38.7c-70.6-20.6-138.8-14.1-203.3,21.6c-24.1,13.3-44.3,31.6-54.2,58
		c-15.1,40.3-3.9,75.2,25.3,105.3c4.6,4.7,9.9,8.7,14.8,13.1c3.6,3.2,8.3,6.4,4,11.8c-3.9,5-8.2,1.8-11.8-0.9
		c-19.9-14.7-35.4-33-44.7-56.2C104.1,204.4,101.9,198,99.1,190.6z M469.9,255.8c0.5-2.8,0.1-5.8-2.1-7.3c-1-0.7-3.6-1.2-5.7,0.5
		c-9.8,7.9-21.4,12.9-32.1,19.4c-6,3.7-7.3,10.9-2.6,15.6c9.1,9,18.4,17.9,27.9,26.6c4.3,3.9,7.6,3.2,8.4-3.2
		C465.7,290.3,467.8,273.1,469.9,255.8z M414.6,317c0.1,0,0.2,0,0.2,0c0,8.7-0.2,17.4,0.1,26c0.2,6.5,3.6,8.7,9.4,5.1
		c7.9-4.8,15.7-9.8,23.4-15c4.5-3,5.3-12.7,1.4-16.5c-9.2-9-18.7-17.7-28.1-26.4c-1.2-1.2-2.6-2.9-4.6-2.1c-2.5,1-1.8,3.5-1.8,5.5
		C414.6,301.5,414.6,309.2,414.6,317z M301.3,335.4C301.3,335.4,301.2,335.4,301.3,335.4c-0.1-8.1,0.1-16.2-0.2-24.3
		c-0.1-2.8,1.9-8-3-7.6c-4.5,0.3-11.7,0.1-12,6.8c-0.7,16.5-0.8,33-0.1,49.5c0.3,6.5,7.4,6.3,12,6.7c4.7,0.4,3.1-4.2,3.1-6.8
		C301.4,351.6,301.3,343.5,301.3,335.4z M314.4,334.2c0,0,0.1,0,0.1,0c0,8.4-0.2,16.7,0.1,25.1c0.1,2.4-2.3,7,2.7,6.8
		c4.5-0.2,11.2-0.8,11.5-6.2c0.8-16.7,0.7-33.4,0-50.1c-0.3-6.2-7.1-5.9-11.3-6.2c-5.2-0.3-2.8,4.7-2.9,7.4
		C314.2,318.7,314.4,326.5,314.4,334.2z"/>
	<g>
		<g>
			<path class="st1" d="M74.2,460.5c-6.3-1.3-13.6-4.9-21.6-10.5c-8.6-6.1-16.3-14.8-18.7-25.3c-2-9,0.4-17.1,6.7-24.2
				c6.7-7.6,15.1-11,24.5-11.3c9.1-0.3,20.6,4.1,27.7,9.4c5.4,4,10,7.8,13.2,11.6c-2.9,4.6-4.4,6.9-7.3,11.6
				c-2.8-4.8-6.7-8.8-11.8-12.4c-5.6-3.9-11.1-5.8-16.8-5.4c-5.7,0.3-10.6,2.8-14.5,7.8c-3.8,4.8-5.2,9.9-3.9,15.5
				c1.3,5.6,5,10.6,11.1,14.9c5.8,4.1,12,6.6,18.4,7.4C78.4,453.9,77,456.1,74.2,460.5z"/>
			<path class="st1" d="M151.7,501.1c-6.9-2.5-10.4-3.9-17.2-6.7c-4.9-16.3-9.2-32.6-12.3-49.4c-0.5-2.9-0.8-5-0.8-6.3
				c-0.1,0-0.1-0.1-0.2-0.1c-0.8,2.1-2.3,5.2-4.4,9.2c-5.4,10.2-10.8,20.4-16.2,30.6c-6.2-3.3-9.2-5-15.3-8.5
				c10.6-18.1,21.2-36.3,31.8-54.4c5.9,3.4,8.8,5.1,14.8,8.2c2.3,15.8,5.5,31.6,9.8,47c0.6,2.1,1.1,4.2,1.6,6.2c0.1,0,0.1,0,0.2,0.1
				c0.3-1.5,1.3-4.2,2.9-8.2c4.4-10.7,8.9-21.5,13.3-32.2c5.4,2.2,8.1,3.3,13.6,5.3C166.1,461.7,158.9,481.4,151.7,501.1z"/>
			<path class="st1" d="M239.7,522.7c-7.2-0.9-10.8-1.5-18-2.8c-8.2-14.8-15.8-29.7-22.3-45.4c-1.1-2.7-1.8-4.7-2.2-6
				c-0.1,0-0.1,0-0.2-0.1c-0.3,2.2-1.1,5.5-2.3,9.9c-3,11.1-6,22.3-9.1,33.4c-6.6-1.8-9.9-2.7-16.5-4.8c6.3-20,12.7-40.1,19-60.1
				c6.3,2,9.5,2.9,15.9,4.6c5.6,14.9,12,29.5,19.4,43.6c1,1.9,2,3.9,2.8,5.7c0.1,0,0.1,0,0.2,0c0-1.5,0.3-4.4,1.1-8.6
				c2-11.4,4-22.9,6-34.3c5.7,1,8.5,1.4,14.3,2.2C245.2,481,242.4,501.9,239.7,522.7z"/>
			<path class="st1" d="M321,525.3c-4.1,0.3-6.2,0.4-10.4,0.6c-3.7-6.9-5.4-10.4-8.8-17.4c-10.9,0.1-21.6-0.1-32.4-0.6
				c-3.5,6.9-5.3,10.3-9,17.1c-4.2-0.3-6.2-0.5-10.4-1c12-19.8,22.8-39.9,32.6-60.9c3.3,0.1,4.9,0.1,8.2,0.2
				C299.7,484.5,309.7,505.1,321,525.3z M298.8,501.9c-4.1-8.8-7.9-17.8-11.4-26.9c-0.3-0.9-0.7-2.3-1-4.2c-0.1,0-0.1,0-0.2,0
				c-0.4,1.8-0.8,3.2-1.2,4.2c-3.8,8.9-8,17.7-12.3,26.4C283.2,501.9,288.4,502,298.8,501.9z"/>
			<path class="st1" d="M412.9,508.6c-3.6,1.1-5.4,1.6-9,2.6c-3.8-13.6-7.5-27.2-11.3-40.7c-0.9-3.2-1.8-7.2-2.6-12
				c-0.1,0-0.1,0-0.2,0.1c0,2.9-0.1,5.1-0.4,6.4c-3.9,18-8.5,35.5-14,53.1c-1.8,0.4-2.7,0.5-4.5,0.9c-11.7-14-22.5-28.4-32.9-43.5
				c-0.9-1.3-1.8-3.4-2.9-6.2c-0.1,0-0.1,0-0.2,0c0.5,2.5,1.2,6.5,1.8,12.2c1.6,14,3.3,27.9,4.9,41.9c-3.6,0.4-5.4,0.6-9,1
				c-2-20.9-4-41.8-6-62.7c4.2-0.4,6.3-0.6,10.4-1.2c8.9,13.8,18.4,27.2,28.7,40c2.4,3,4.1,5.2,4.9,6.8c0.1,0,0.2,0,0.3-0.1
				c0.9-3.7,1.6-6.5,2.1-8.3c4.8-15.7,8.8-31.7,11.9-47.8c3.9-1,5.8-1.6,9.6-2.8C400.8,468.4,406.8,488.5,412.9,508.6z"/>
			<path class="st1" d="M463.8,490.6c-7.7,3.5-20.3,5.6-28.7,2.3c-8.3-3.2-14-9.4-17.1-18.3c-3.3-9.6-2.9-18.2,0.7-26
				c3.6-7.8,10-13.5,19.3-17.8c8.7-3.9,16.8-4.8,24.8-2.5c8.1,2.3,14.6,7.4,19.3,15.6c5.1,8.9,6.1,17.8,3,26.3
				C481.9,478.8,471.7,487.1,463.8,490.6z M440.3,437.1c-6.7,3-11.3,7.5-13.9,13.7c-2.6,6.2-2.7,12.9,0,20.1s7.2,12.3,13.6,14.9
				c6.4,2.6,13.5,2.2,21.1-1.2c8-3.6,13.3-8.8,15.7-15.1c2.4-6.3,1.5-13.1-2.3-20.2c-4-7.3-9-11.9-15-13.9S447.2,434,440.3,437.1z"
				/>
			<path class="st1" d="M566.3,423.1c-3.7,3.2-5.5,4.8-9.3,7.9c-21.4-3.9-41.9-9.1-62.5-16c-1.5-0.5-2.9-1.2-4.1-2
				c-0.1,0.1-0.2,0.1-0.3,0.2c1,1,2.7,3.3,5.1,7c8.3,12.7,16.7,25.4,25,38c-3.3,2.1-4.9,3.2-8.2,5.3c-11.1-17.8-22.3-35.6-33.4-53.4
				c3.6-2.3,5.4-3.4,9-5.8c19.7,7.1,39.5,12.6,60,16.8c2.6,0.5,4.4,0.8,5.3,1.1c0.1-0.1,0.1-0.1,0.2-0.1c-1.5-1.1-3.6-3.4-6.4-6.7
				c-9.5-11.3-19-22.7-28.5-34c2.6-2.2,3.9-3.3,6.4-5.5C538.5,391.6,552.4,407.4,566.3,423.1z"/>
		</g>
	</g>
</g>
</svg>
